<svg xmlns="http://www.w3.org/2000/svg" width="60" height="60"><defs/><g fill="none" fill-rule="evenodd"><g fill-rule="nonzero" transform="translate(1 2)"><path fill="#FFC900" d="M52.14 13.734l3.462-3.461a2.098 2.098 0 000-2.959l-5.916-5.916a2.098 2.098 0 00-2.959 0l-3.46 3.461 8.874 8.875z"/><path fill="#00939F" d="M51.93 44.15c-.66-.42-1.32-.86-2-1.32a27.016 27.016 0 01-2.17 3.39 27.765 27.765 0 01-2.11 2.51c-.18.19-.36.38-.55.55a23.515 23.515 0 01-3.11 2.67c.39.27.77.53 1.16.79A28.238 28.238 0 01.49 34.01c-.02-.12-.04-.24-.06-.37-.08-.48-.16-.97-.22-1.46-.01-.11-.03-.22-.04-.33l-.06-.62c-.04-.37-.06-.74-.08-1.11-.04-.91-.04-1.81 0-2.72.02-.39.05-.77.09-1.16.02-.29.06-.59.09-.88.05-.44.12-.87.19-1.31l.06-.35c.04-.24.08-.47.13-.71.06-.29.12-.57.19-.86a28.061 28.061 0 013.48-8.28c.18-.29.37-.59.57-.88.2-.3.42-.61.63-.91.2-.28.42-.55.63-.82.44-.55.9-1.1 1.4-1.63.25-.27.51-.55.78-.81v-.01c.047-.05.098-.096.15-.14.048-.055.102-.105.16-.15.18-.18.36-.35.54-.52l.52-.46a27.18 27.18 0 013.21-2.44C24.035-2.187 38.778-.64 48.21 8.79c9.433 9.43 10.984 24.174 3.72 35.36z"/><path fill="#00C6DB" d="M49.93 42.83a27.016 27.016 0 01-2.17 3.39 27.765 27.765 0 01-2.11 2.51c-.18.19-.36.38-.55.55a23.515 23.515 0 01-3.11 2.67c-10.54 7.801-25.263 6.413-34.16-3.22a28.683 28.683 0 01-7.4-15.09c-.08-.48-.16-.97-.22-1.46-.01-.11-.03-.22-.04-.33l-.06-.62c-.04-.37-.06-.74-.08-1.11-.04-.91-.04-1.81 0-2.72.02-.39.05-.77.09-1.16.02-.29.06-.59.09-.88.05-.44.12-.87.19-1.31l.06-.35c.04-.24.08-.47.13-.71.06-.29.12-.57.19-.86A28.547 28.547 0 017.83 8.79a25.775 25.775 0 0137.82 0 29.461 29.461 0 014.28 34.04z"/><path fill="#354AA3" d="M46.55 50.25c-.27.23-.54.46-.82.68-.58.46-1.17.89-1.77 1.3l-.81.51c-.39-.26-.77-.52-1.16-.79a23.515 23.515 0 003.11-2.67c.48.33.97.65 1.45.97z"/><path fill="#5068C1" d="M45.1 49.28a23.515 23.515 0 01-3.11 2.67 148.196 148.196 0 01-20.06-16.88A145.726 145.726 0 014.26 13.85c.18-.29.37-.59.57-.88.2-.3.42-.61.63-.91.41-.55.84-1.09 1.3-1.61a140.136 140.136 0 0018 21.79A143.322 143.322 0 0045.1 49.28z"/><path fill="#583EAF" d="M49.48 47.36c-.15.18-.3.35-.46.52-.26.29-.53.57-.81.85-.3.3-.6.59-.91.87-.25.22-.5.44-.75.65-.48-.32-.97-.64-1.45-.97.19-.17.37-.36.55-.55a27.765 27.765 0 002.11-2.51c.19.12.37.25.55.37.04.03.08.05.11.07.36.24.71.47 1.06.7z"/><path fill="#7B54C3" d="M37.94 38.85c3.38 2.8 6.67 5.25 9.82 7.37a27.765 27.765 0 01-2.11 2.51c-.18.19-.36.38-.55.55a143.322 143.322 0 01-20.34-17.04 140.136 140.136 0 01-18-21.79c.24-.29.48-.57.73-.84s.51-.55.78-.81l.15-.15c.048-.055.102-.105.16-.15.18-.18.36-.35.54-.52l.52-.46a134.983 134.983 0 0017.95 21.89c.48.48.95.95 1.43 1.41.47.46.94.92 1.41 1.37.36.33.72.67 1.07 1.01.074.058.145.122.21.19l1.74 1.59c.41.37.82.74 1.23 1.09.24.21.47.42.71.62.7.61 1.39 1.2 2.08 1.77.16.14.31.27.47.39z"/><path fill="#354AA3" d="M51.93 44.15c-.15.23-.31.46-.47.69-.12.17-.23.33-.35.49-.03.04-.06.09-.09.13-.03.04-.06.07-.09.11-.27.37-.55.74-.85 1.09-.2.24-.4.47-.6.7-.35-.23-.7-.46-1.06-.7-.03-.02-.07-.04-.11-.07-.18-.12-.36-.25-.55-.37a27.016 27.016 0 002.17-3.39c.68.46 1.34.9 2 1.32z"/><path fill="#5068C1" d="M49.93 42.83a27.016 27.016 0 01-2.17 3.39c-3.15-2.12-6.44-4.57-9.82-7.37-.16-.13-.31-.26-.47-.39-.69-.57-1.38-1.16-2.08-1.77-.24-.2-.47-.41-.71-.62-.41-.36-.82-.72-1.23-1.09a1454.892 1454.892 0 01-1.95-1.78c-.35-.34-.71-.68-1.07-1.01-.47-.45-.94-.91-1.41-1.37-.48-.46-.95-.93-1.43-1.41A134.983 134.983 0 019.64 7.52a27.18 27.18 0 013.21-2.44 129.335 129.335 0 0017.57 21.51 131.073 131.073 0 0019.51 16.24z"/><circle cx="31" cy="10" r="5" fill="#00939F"/><circle cx="23.5" cy="47.5" r="5.5" fill="#00939F"/></g><g stroke="#000" stroke-linecap="round" stroke-linejoin="round" transform="translate(0 1)"><path stroke-width="2" d="M49.207 49.733c-.53.53-1.082 1.04-1.655 1.513a25.885 25.885 0 01-3.401 2.496c-11.146 6.934-25.6 5.273-34.882-4.009C-.012 40.451-1.674 25.997 5.26 14.852a25.885 25.885 0 012.496-3.402c.474-.572.983-1.124 1.513-1.654.446-.446.898-.87 1.372-1.273a27.501 27.501 0 013.21-2.447c11.186-7.26 25.926-5.71 35.356 3.72 9.43 9.43 10.98 24.17 3.72 35.355a27.501 27.501 0 01-2.447 3.21c-.403.474-.828.927-1.273 1.372z"/><path stroke-width="2" d="M53.143 14.734l3.46-3.46a2.098 2.098 0 000-2.959L50.688 2.4a2.098 2.098 0 00-2.958 0l-3.46 3.46"/><circle cx="55.864" cy="3.138" r="3.138" stroke-width="2"/><path d="M49.207 49.733c-.53.53-1.082 1.04-1.655 1.513a25.885 25.885 0 01-3.401 2.496 145.847 145.847 0 01-21.22-17.67 145.848 145.848 0 01-17.67-21.22 25.885 25.885 0 012.495-3.402c.474-.572.983-1.124 1.513-1.654.446-.446.898-.87 1.372-1.273a27.501 27.501 0 013.21-2.447c11.186-7.26 25.926-5.71 35.356 3.72 9.43 9.43 10.98 24.17 3.72 35.355a27.501 27.501 0 01-2.447 3.21c-.403.474-.828.927-1.273 1.372z"/><path d="M49.207 49.733c-.53.53-1.082 1.04-1.655 1.513A140.944 140.944 0 0125.76 33.243 140.944 140.944 0 017.756 11.45c.474-.572.983-1.124 1.513-1.654.446-.446.898-.87 1.372-1.273a27.501 27.501 0 013.21-2.447c11.186-7.26 25.926-5.71 35.356 3.72 9.43 9.43 10.98 24.17 3.72 35.355a27.501 27.501 0 01-2.447 3.21c-.403.474-.828.927-1.273 1.372z"/><path d="M50.48 48.361a135.423 135.423 0 01-21.892-17.946A135.423 135.423 0 0110.64 8.523a27.501 27.501 0 013.21-2.447c11.186-7.26 25.926-5.71 35.356 3.72 9.43 9.43 10.98 24.17 3.72 35.355a27.501 27.501 0 01-2.447 3.21h0z"/><path d="M52.926 45.151a129.377 129.377 0 01-21.51-17.564 129.377 129.377 0 01-17.565-21.51C25.037-1.186 39.777.365 49.207 9.795c9.43 9.43 10.98 24.17 3.72 35.355z"/><circle cx="32" cy="11" r="5"/><circle cx="24.5" cy="48.5" r="5.5"/></g></g></svg>